<svg width="14" height="14" viewBox="0 0 14 14" xmlns="http://www.w3.org/2000/svg"><title>Group</title><g fill="#4172C5"><path d="M6.927 2.42A4.823 4.823 0 0 0 2.11 7.236a4.823 4.823 0 0 0 4.817 4.817 4.823 4.823 0 0 0 4.818-4.817 4.823 4.823 0 0 0-4.818-4.818zm.22 9.182v-.387a.22.22 0 1 0-.44 0v.387a4.375 4.375 0 0 1-4.145-4.145h.387a.22.22 0 1 0 0-.44h-.387a4.375 4.375 0 0 1 4.145-4.145v.387a.22.22 0 1 0 .44 0v-.387a4.375 4.375 0 0 1 4.145 4.144h-.386a.22.22 0 1 0 0 .441h.386a4.375 4.375 0 0 1-4.144 4.145z"/><path d="M9.057 4.399L6.76 7.093a.22.22 0 0 0 .013.299l1.502 1.501a.22.22 0 1 0 .311-.311L7.227 7.224l2.166-2.54a.22.22 0 1 0-.336-.285z"/><path d="M13.089 3.363a.22.22 0 0 0 .311 0c.335-.335.52-.78.52-1.254A1.76 1.76 0 0 0 13.4.855a1.762 1.762 0 0 0-1.254-.519 1.76 1.76 0 0 0-1.253.52.22.22 0 0 0 0 .311l.937.937-.502.49A6.378 6.378 0 0 0 6.927.83c-1.687 0-3.22.66-4.365 1.73l-.45-.45.941-.943a.22.22 0 0 0 0-.312c-.67-.67-1.839-.67-2.507 0a1.76 1.76 0 0 0-.52 1.254c0 .474.185.919.52 1.254a.22.22 0 0 0 .311 0L1.8 2.42l.452.45a6.376 6.376 0 0 0 .197 8.938c-.016.012-.036.018-.05.033L1.34 12.9a.441.441 0 1 0 .624.624l1.057-1.057a.425.425 0 0 0 .073-.11 6.366 6.366 0 0 0 7.376.213l.963.941a.442.442 0 0 0 .617-.63l-.878-.858a6.385 6.385 0 0 0 2.162-4.786c0-1.67-.647-3.186-1.697-4.328l.505-.492.947.947zM.715 2.883a1.322 1.322 0 0 1-.247-.774c0-.356.138-.69.39-.942.251-.251.586-.39.942-.39.28 0 .548.087.772.247l-.927.929h-.001l-.93.93zm6.212 9.878a5.53 5.53 0 0 1-5.524-5.525 5.53 5.53 0 0 1 5.524-5.524 5.53 5.53 0 0 1 5.525 5.524 5.53 5.53 0 0 1-5.525 5.525zM13.09 1.167c.251.252.39.586.39.942 0 .281-.087.55-.247.773l-.93-.93-.928-.928a1.361 1.361 0 0 1 1.715.143z"/></g></svg>