<svg width="20" height="13" viewBox="0 0 20 13" xmlns="http://www.w3.org/2000/svg"><title>australia</title><g fill="none"><path d="M19.617 12.99H.344A.343.343 0 0 1 0 12.647V.352C0 .164.154.011.344.011h19.273c.19 0 .344.153.344.341v12.296a.343.343 0 0 1-.344.341z" fill="#41479B"/><path d="M9.636.01H9.04L5.85 2.085V.01H4.13v2.073L.942.01H.344A.343.343 0 0 0 0 .352v.271l2.735 1.778H0V4.11h2.735L0 5.888v.27c0 .19.154.342.344.342h.598L4.13 4.427V6.5h1.72V4.427L9.04 6.5h.597c.19 0 .345-.153.345-.342v-.27L7.245 4.109h2.736V2.402H7.245L9.981.623v-.27A.343.343 0 0 0 9.636.01z" fill="#F5F5F5"/><g fill="#FF4B55"><path d="M9.98 2.743H5.507V.011H4.474v2.732H0v1.025h4.474V6.5h1.032V3.768h4.475z"/><path d="M3.786 2.402L.164.068A.336.336 0 0 0 0 .352V.37l3.154 2.032h.632zm2.697 0L9.928.182a.34.34 0 0 0-.292-.171h-.074L5.85 2.4h.632zM3.488 4.11L.05 6.323a.34.34 0 0 0 .295.176H.41L4.12 4.11h-.632zm6.487 2.075L6.752 4.11H6.12l3.66 2.358a.338.338 0 0 0 .195-.282z"/></g><path d="M5.094 8.362l.26.851.833-.329c.07-.028.135.053.092.115l-.509.732.779.44c.066.038.043.139-.033.144l-.894.062.138.879c.012.075-.082.12-.133.063l-.607-.655-.606.655c-.051.056-.145.012-.133-.063l.138-.88-.894-.061c-.076-.005-.1-.106-.033-.143l.778-.44-.508-.733c-.043-.062.021-.143.092-.115l.833.33.26-.852c.022-.072.125-.072.147 0zm10.239-6.051l.126.416.407-.161c.035-.014.066.026.045.056l-.248.358.38.215c.032.018.021.067-.016.07l-.437.03.068.43c.005.036-.04.058-.066.03l-.296-.32-.296.32c-.025.028-.07.006-.065-.03l.067-.43-.436-.03c-.037-.003-.049-.052-.016-.07l.38-.215-.248-.358c-.022-.03.01-.07.045-.056l.406.16.127-.415c.011-.035.062-.035.073 0zm-2.83 3.191l.127.416.407-.161c.034-.014.066.026.045.056l-.249.358.38.215c.033.018.022.067-.016.07l-.436.03.067.43c.006.036-.04.058-.065.03l-.296-.32-.296.32c-.026.028-.071.006-.065-.03l.067-.43-.437-.03c-.037-.003-.048-.052-.016-.07l.38-.215-.248-.358c-.021-.03.01-.07.045-.056l.407.16.127-.415c.01-.035.061-.035.072 0zm5.507-1.366l.126.416.407-.161a.037.037 0 0 1 .045.056l-.248.358.38.215c.032.018.021.067-.016.07l-.437.03.067.43c.006.036-.04.058-.065.03l-.296-.32-.296.32c-.025.028-.07.006-.065-.03l.067-.43-.436-.03c-.037-.003-.049-.052-.016-.07l.38-.215-.248-.358c-.022-.03.01-.07.045-.056l.406.16.127-.415c.011-.036.062-.036.072 0zM15.333 9.6l.126.416.407-.16a.037.037 0 0 1 .045.056l-.248.357.38.216c.032.018.021.067-.016.07l-.437.03.068.429c.005.037-.04.058-.066.031l-.296-.32-.296.32a.038.038 0 0 1-.065-.031l.067-.43-.436-.03c-.037-.002-.049-.051-.016-.07l.38-.215-.248-.357c-.022-.031.01-.07.045-.056l.406.16.127-.415a.038.038 0 0 1 .073 0zm.981-3.35l-.102.302-.322.003c-.041 0-.059.053-.025.077l.259.19-.097.305c-.013.04.033.072.066.048l.262-.186.262.186c.034.024.08-.009.067-.048l-.097-.305.259-.19c.033-.024.016-.077-.026-.077l-.322-.003-.101-.303a.044.044 0 0 0-.083 0z" fill="#F5F5F5"/></g></svg>