<svg width="48" height="44" viewBox="0 0 48 44" xmlns="http://www.w3.org/2000/svg"><title>Shape</title><path d="M43 44H5c-2.8 0-5-2.2-5-5V12c0-2.8 2.2-5 5-5h6c-.6 0-1-.4-1-1s.4-1 1-1h4.1c.5-2.8 2.9-5 5.9-5h6c3 0 5.4 2.2 5.9 5H37c.6 0 1 .4 1 1s-.4 1-1 1h6c2.8 0 5 2.2 5 5v27c0 2.8-2.2 5-5 5zM31 6c0-2.2-1.8-4-4-4h-6c-2.2 0-4 1.8-4 4 0 .6-.4 1-1 1h16c-.6 0-1-.4-1-1zm15 6c0-1.7-1.3-3-3-3H5c-1.7 0-3 1.3-3 3v12h44V12zM22 25v1c0 .6.4 1 1 1h2c.6 0 1-.4 1-1v-1h-4zm24 0H28v2c0 1.1-.9 2-2 2h-4c-1.1 0-2-.9-2-2v-2H2v14c0 1.7 1.3 3 3 3h38c1.7 0 3-1.3 3-3V25z" fill="#4172C5"/></svg>