<svg width="10" height="16" viewBox="0 0 10 16" xmlns="http://www.w3.org/2000/svg"><title>Shape</title><path d="M9.635.503C9.567.483 7.965 0 6.32 0 3.95 0 2.623 1.024 2.59 2.893v3.259H.525A.54.54 0 0 0 .15 6.3a.49.49 0 0 0-.15.358l.045 2.97a.513.513 0 0 0 .525.493h2.018V15.5c0 .276.235.5.525.5h3.062c.29 0 .524-.224.524-.5v-5.378h1.55a.52.52 0 0 0 .508-.377l.796-2.97a.481.481 0 0 0-.094-.43.533.533 0 0 0-.414-.193H6.699V4.196c.053-.063.278-.19.838-.19.476 0 1.084.09 1.807.268a.55.55 0 0 0 .453-.09A.49.49 0 0 0 10 3.79V.98a.503.503 0 0 0-.365-.476zM8.95 3.161a7.603 7.603 0 0 0-1.414-.155c-1.796 0-1.883 1.039-1.887 1.114v2.532c0 .276.235.5.525.5H8.37l-.528 1.97H6.176a.513.513 0 0 0-.525.5V15H3.638V9.622c0-.276-.235-.5-.524-.5H1.087l-.03-1.97h2.057c.29 0 .524-.224.524-.5v-3.75C3.653 2.085 3.948 1 6.32 1c1.04 0 2.093.223 2.63.357v1.804z" fill="#4172C5"/></svg>