<svg width="12" height="15" viewBox="0 0 12 15" xmlns="http://www.w3.org/2000/svg"><title>file</title><g fill="#4172C5"><path d="M9.74 6H3.26a.255.255 0 0 0-.26.25c0 .138.116.25.26.25h6.48c.144 0 .26-.112.26-.25A.255.255 0 0 0 9.74 6zM3.25 4.5h2.5a.25.25 0 1 0 0-.5h-2.5a.25.25 0 1 0 0 .5zM9.74 8H3.26a.255.255 0 0 0-.26.25c0 .138.116.25.26.25h6.48c.144 0 .26-.112.26-.25A.255.255 0 0 0 9.74 8zm0 2H3.26a.255.255 0 0 0-.26.25c0 .138.116.25.26.25h6.48c.144 0 .26-.112.26-.25a.255.255 0 0 0-.26-.25zm0 2H3.26a.255.255 0 0 0-.26.25c0 .138.116.25.26.25h6.48c.144 0 .26-.112.26-.25a.255.255 0 0 0-.26-.25z"/><path d="M8.276 0H0v15h12V3.646L8.276 0zm.15.854L11.128 3.5H8.426V.853zM.51 14.5V.5h7.404V4h3.574v10.5H.511z"/></g></svg>