<svg width="11" height="16" viewBox="0 0 11 16" xmlns="http://www.w3.org/2000/svg"><title>Shape</title><path d="M10.135.503C10.067.483 8.465 0 6.82 0 4.45 0 3.123 1.024 3.09 2.893v3.259H1.025A.54.54 0 0 0 .65 6.3a.49.49 0 0 0-.15.358l.045 2.97a.513.513 0 0 0 .525.493h2.018V15.5c0 .276.235.5.525.5h3.062c.29 0 .524-.224.524-.5v-5.378h1.55a.52.52 0 0 0 .508-.377l.796-2.97a.481.481 0 0 0-.094-.43.533.533 0 0 0-.414-.193H7.199V4.196c.053-.063.278-.19.838-.19.476 0 1.084.09 1.807.268a.55.55 0 0 0 .453-.09.49.49 0 0 0 .203-.395V.98a.503.503 0 0 0-.365-.476zM9.45 3.161a7.603 7.603 0 0 0-1.414-.155c-1.796 0-1.883 1.039-1.887 1.114v2.532c0 .276.235.5.525.5H8.87l-.528 1.97H6.676a.513.513 0 0 0-.525.5V15H4.138V9.622c0-.276-.235-.5-.524-.5H1.587l-.03-1.97h2.057c.29 0 .524-.224.524-.5v-3.75C4.153 2.085 4.448 1 6.82 1c1.04 0 2.093.223 2.63.357v1.804z" fill="#444"/></svg>