<svg width="17" height="13" viewBox="0 0 17 13" xmlns="http://www.w3.org/2000/svg"><title>Shape</title><path d="M15.795 1.514c.188-.38.207-.66.21-.715a.501.501 0 0 0-.288-.47.518.518 0 0 0-.552.07c-.336.281-.998.449-1.402.523C13.068.31 12.291 0 11.45 0c-1.326 0-2.313.79-2.39.856-1.117 1.099-1.28 2.137-1.22 2.817C4.16 3.168 2.566.838 2.497.735a.537.537 0 0 0-.443-.23.512.512 0 0 0-.428.254c-.777 1.348-.578 2.556-.098 3.45a.508.508 0 0 0-.434.448C.976 5.907 1.59 6.832 2.33 7.45l-.02.017a.497.497 0 0 0-.148.46c.25 1.246 1.235 1.886 2.068 2.21-1.59.726-3.148.537-3.15.538a.512.512 0 0 0-.552.335.498.498 0 0 0 .23.596C2.396 12.531 4.1 13 5.813 13c3.19 0 5.299-1.613 5.397-1.69 3.69-3.03 3.836-6.488 3.787-7.531.56-.454 1.244-1.305 1.395-1.495a.495.495 0 0 0-.004-.62.517.517 0 0 0-.594-.15zM14.21 3.107a.5.5 0 0 0-.247.5c.005.037.477 3.747-3.394 6.925-.019.015-1.916 1.465-4.755 1.465a8.66 8.66 0 0 1-2.727-.448 6.877 6.877 0 0 0 2.746-1.194.497.497 0 0 0 .185-.535.508.508 0 0 0-.438-.365c-.018-.001-1.473-.162-2.134-1.072a5.87 5.87 0 0 0 .658-.057.505.505 0 0 0 .435-.455.502.502 0 0 0-.353-.519c-.02-.006-1.663-.535-2.02-1.868.221.06.477.108.755.12a.506.506 0 0 0 .499-.334.498.498 0 0 0-.174-.569c-.068-.05-1.47-1.117-1.036-2.732.9.945 2.898 2.547 6.255 2.775a.516.516 0 0 0 .454-.22.5.5 0 0 0 .038-.502c-.022-.045-.523-1.132.788-2.426.007-.005.757-.593 1.704-.593.64 0 1.241.271 1.786.807.11.108.266.16.422.143.054-.007.267-.034.551-.097a3.633 3.633 0 0 1-.189.139.497.497 0 0 0-.179.6.51.51 0 0 0 .554.305l.098-.017c-.11.102-.208.18-.282.224z" fill="#444"/></svg>