<svg width="17" height="13" viewBox="0 0 17 13" xmlns="http://www.w3.org/2000/svg"><title>Shape</title><path d="M16.5 11.194c0 1.012-.733 1.806-1.667 1.806H2.167C1.233 13 .5 12.206.5 11.194V1.806c0-.398.133-.795.333-1.084C1.133.29 1.6 0 2.167 0h12.666c.534 0 1.034.289 1.334.722.2.29.333.686.333 1.084v9.388zM2.167 12.278h12.666c.2 0 .4-.072.567-.217l-4.9-5.308-1.033 1.12c-.534.577-1.4.577-1.934 0L6.5 6.752 1.6 12.06a.863.863 0 0 0 .567.217zm-1-10.472v9.388c0 .217.066.434.2.614l4.9-5.308-4.934-5.272c-.1.18-.166.36-.166.578zM14.833.722H2.167a1.01 1.01 0 0 0-.634.253l6.234 6.644a.953.953 0 0 0 1.433 0L15.433.975a.853.853 0 0 0-.6-.253zm1 1.084c0-.217-.066-.398-.166-.578L10.733 6.5l4.9 5.308c.1-.18.2-.397.2-.614V1.806z" fill="#444"/></svg>