<svg width="13" height="16" viewBox="0 0 13 16" xmlns="http://www.w3.org/2000/svg"><title>Shape</title><path d="M7.3 15.6s-.367.4-.8.4h-.033c-.434 0-.8-.4-.8-.4C3.5 13.067.5 9.5.5 6c0-3.333 2.7-6 6-6s6 2.667 6 6c0 3.5-3 7.067-5.2 9.6zM6.5.667C3.567.667 1.167 3.1 1.167 6c0 3.4 3.3 7.067 5.266 9.267l.067.066c.033-.033.067-.033.067-.066C8.533 13.033 11.833 9.4 11.833 6c0-2.9-2.4-5.333-5.333-5.333zM6.5 9c-1.667 0-3-1.333-3-3s1.333-3 3-3 3 1.333 3 3-1.333 3-3 3zm0-5.667A2.675 2.675 0 0 0 3.833 6c0 1.467 1.2 2.667 2.667 2.667 1.467 0 2.667-1.2 2.667-2.667 0-1.467-1.2-2.667-2.667-2.667z" fill="#444"/></svg>