<svg width="14" height="15" viewBox="0 0 14 15" xmlns="http://www.w3.org/2000/svg"><title>login</title><g fill="#4172C5"><path d="M4.55 8.217a.31.31 0 0 0 0 .442.322.322 0 0 0 .45 0l1.907-1.875a.311.311 0 0 0 .068-.102c.01-.022.01-.045.014-.068.003-.017.011-.033.011-.051 0-.024-.009-.045-.014-.067-.004-.017-.004-.035-.01-.052a.328.328 0 0 0-.071-.104L5 4.467a.322.322 0 0 0-.45 0 .31.31 0 0 0 0 .442L5.915 6.25H.328a.315.315 0 0 0-.318.313c0 .172.142.312.318.312h5.587L4.551 8.217z"/><path d="M12.618 0c-.049 0-.096.01-.144.014C12.45.01 12.427 0 12.4 0H4.776C3.9 0 3.187.701 3.187 1.562v3.126c0 .172.143.312.318.312.175 0 .318-.14.318-.313V1.563c0-.516.427-.937.953-.937h6.077L8.467 1.631c-.505.213-.832.7-.832 1.24V12.5h-2.86c-.456 0-.844-.313-.939-.442l-.013-3.622a.315.315 0 0 0-.318-.311h-.001a.315.315 0 0 0-.317.314l.015 3.642c-.013.136.053.28.199.437.26.28.776.607 1.375.607h2.86v.526c0 .743.615 1.349 1.371 1.349.188 0 .37-.037.54-.109l3.611-1.522c.505-.213.832-.7.832-1.24V1.349C13.99.606 13.374 0 12.618 0zm.737 12.129c0 .29-.176.552-.447.665l-3.61 1.522a.73.73 0 0 1-.29.059.731.731 0 0 1-.737-.724V2.87a.72.72 0 0 1 .447-.665l3.61-1.522a.73.73 0 0 1 .29-.059c.406 0 .737.325.737.724v10.78z"/><path d="M9.224 6.875a.315.315 0 0 0-.318.313v1.25c0 .172.143.312.318.312.176 0 .318-.14.318-.313v-1.25a.315.315 0 0 0-.318-.312z"/></g></svg>