<svg width="16" height="16" viewBox="0 0 16 16" xmlns="http://www.w3.org/2000/svg"><title>Shape</title><path d="M14.5 0h-13C.673 0 0 .673 0 1.5v13c0 .827.673 1.5 1.5 1.5h13c.827 0 1.5-.673 1.5-1.5v-13c0-.827-.673-1.5-1.5-1.5zm-3.563 2.446c0-.55.45-1 1-1h1.25c.55 0 1 .45 1 1V3.96c0 .55-.45 1-1 1h-1.25c-.55 0-1-.45-1-1V2.447zM8 4.473A3.531 3.531 0 0 1 11.527 8 3.531 3.531 0 0 1 8 11.527 3.531 3.531 0 0 1 4.473 8 3.531 3.531 0 0 1 8 4.473zM14.5 15h-13a.5.5 0 0 1-.5-.5V6.785h2.646A4.486 4.486 0 0 0 3.473 8 4.532 4.532 0 0 0 8 12.527 4.532 4.532 0 0 0 12.527 8a4.48 4.48 0 0 0-.173-1.215H15V14.5a.5.5 0 0 1-.5.5z" fill="#4172C5"/></svg>