<svg width="12" height="16" viewBox="0 0 12 16" xmlns="http://www.w3.org/2000/svg"><title>Group</title><g stroke="#ADAEAE" stroke-width=".5" fill="none" fill-rule="evenodd"><path d="M7.218 9.7c0-.716-.56-1.296-1.251-1.296-.69 0-1.25.58-1.25 1.295 0 .4.177.752.45.99v1.675c0 1.15.764 1.044.765 1.044.002 0 .765.107.765-1.044v-1.616c.314-.236.52-.616.52-1.049zM2.182 6.563V4.835s-.215-3.741 3.736-3.741c3.985 0 3.835 3.508 3.835 3.767v1.65"/><path d="M1.153 13.646c0 .658.514 1.19 1.149 1.19h7.331c.635 0 1.149-.532 1.149-1.19V7.65c0-.657-.514-1.19-1.149-1.19H2.302c-.635 0-1.15.533-1.15 1.19v5.996z"/></g></svg>