<svg width="16" height="13" viewBox="0 0 16 13" xmlns="http://www.w3.org/2000/svg"><title>Shape</title><path d="M16 11.194C16 12.206 15.267 13 14.333 13H1.667C.733 13 0 12.206 0 11.194V1.806C0 1.408.133 1.01.333.722.633.29 1.1 0 1.667 0h12.666c.534 0 1.034.289 1.334.722.2.29.333.686.333 1.084v9.388zM1.667 12.278h12.666c.2 0 .4-.072.567-.217L10 6.753l-1.033 1.12c-.534.577-1.4.577-1.934 0L6 6.752 1.1 12.06a.863.863 0 0 0 .567.217zm-1-10.472v9.388c0 .217.066.434.2.614l4.9-5.308L.833 1.228c-.1.18-.166.36-.166.578zM14.333.722H1.667a1.01 1.01 0 0 0-.634.253l6.234 6.644a.953.953 0 0 0 1.433 0L14.933.975a.853.853 0 0 0-.6-.253zm1 1.084c0-.217-.066-.398-.166-.578L10.233 6.5l4.9 5.308c.1-.18.2-.397.2-.614V1.806z" fill="#4172C5"/></svg>