<svg width="12" height="16" viewBox="0 0 12 16" xmlns="http://www.w3.org/2000/svg"><title>Shape</title><path d="M6.8 15.6s-.367.4-.8.4h-.033c-.434 0-.8-.4-.8-.4C3 13.067 0 9.5 0 6c0-3.333 2.7-6 6-6s6 2.667 6 6c0 3.5-3 7.067-5.2 9.6zM6 .667C3.067.667.667 3.1.667 6c0 3.4 3.3 7.067 5.266 9.267l.067.066c.033-.033.067-.033.067-.066C8.033 13.033 11.333 9.4 11.333 6c0-2.9-2.4-5.333-5.333-5.333zM6 9C4.333 9 3 7.667 3 6s1.333-3 3-3 3 1.333 3 3-1.333 3-3 3zm0-5.667A2.675 2.675 0 0 0 3.333 6c0 1.467 1.2 2.667 2.667 2.667 1.467 0 2.667-1.2 2.667-2.667 0-1.467-1.2-2.667-2.667-2.667z" fill="#4172C5"/></svg>