<svg width="40" height="17" viewBox="0 0 40 17" xmlns="http://www.w3.org/2000/svg"><title>Shape</title><path d="M36.442 6.242c-.806 0-.722 1.029-.755 2.127h1.342c0-1.238 0-2.127-.587-2.127zm-.755 3.923c0 .994.47 1.186 1.259 1.186.906 0 2.13-.28 2.6-.366v2.406c-.368.14-1.493.47-2.6.47-1.998 0-4.432-.33-4.432-4.76 0-3.905 1.914-4.83 3.928-4.83 2.064 0 3.558 1.1 3.558 4.796v1.098h-4.313zm-7.873-3.452c-.185 0-.554.157-.755.279v4.463c.15.053.42.088.537.088.554 0 .89-.489.89-2.528 0-2.075-.152-2.302-.672-2.302zm.369 7.149c-.403 0-.822-.122-1.124-.192V17h-3.19V4.446h2.585l.47.576a2.824 2.824 0 0 1 1.897-.75c1.309 0 2.853.383 2.853 4.742 0 4.778-2.316 4.848-3.491 4.848zm-7.251-10.55c-.89 0-1.578-.749-1.578-1.656C19.354.75 20.042 0 20.932 0c.89 0 1.578.75 1.578 1.656 0 .907-.688 1.657-1.578 1.657zm-1.594 10.375v-9.24h3.188v9.24h-3.188zm-1.931-6.643c-.504 0-.89.21-1.058.314v6.33H13.16V4.445h2.535l.47.89c.184-.576.688-1.064 1.426-1.064.504 0 .84.104.99.191v2.755a4.555 4.555 0 0 0-1.174-.174zm-6.06 4.307c.201 0 .906-.105 1.141-.14v2.354c-.486.122-1.56.297-2.266.297-.906 0-2.601-.105-2.601-2.668V6.556H6.446v-2.11h1.175l.403-2.092 2.786-.697v2.79h1.678l-.42 2.11H10.81V10.6c0 .628.184.75.537.75zM3.105 7.114c0 .366.235.488.789.75l.336.157c.789.366 1.88.959 1.88 2.702 0 2.79-1.998 3.139-3.424 3.139-.924 0-1.897-.227-2.552-.436v-2.389c.57.157 1.561.401 1.998.401.486 0 .856-.07.856-.523 0-.349-.235-.505-.756-.75l-.403-.191C1.074 9.607 0 8.98 0 7.289c0-2.476 1.863-3.017 3.424-3.017a6.17 6.17 0 0 1 2.35.436v2.319c-.47-.157-1.427-.366-1.998-.366-.385 0-.67.104-.67.453z" fill="#4172C5"/></svg>