<svg width="106" height="34" viewBox="0 0 106 34" xmlns="http://www.w3.org/2000/svg"><title>Stripe</title><g fill="none" fill-rule="evenodd"><path d="M100.663 14.18c-1.209 0-1.083 1.513-1.133 3.128h2.014c0-1.82 0-3.128-.881-3.128zm-1.133 5.769c0 1.461.705 1.743 1.888 1.743 1.36 0 3.197-.41 3.902-.538v3.538c-.553.206-2.24.692-3.902.692-2.996 0-6.647-.487-6.647-7 0-5.743 2.87-7.102 5.892-7.102 3.096 0 5.337 1.615 5.337 7.051v1.616h-6.47zm-11.81-5.077c-.276 0-.83.23-1.132.41v6.564c.226.077.63.129.806.129.83 0 1.334-.718 1.334-3.718 0-3.052-.227-3.385-1.007-3.385zm.554 10.513c-.604 0-1.233-.18-1.686-.282V30h-4.784V11.539h3.877l.705.846a4.282 4.282 0 0 1 2.845-1.103c1.964 0 4.28.564 4.28 6.974 0 7.026-3.474 7.129-5.237 7.129zM77.398 9.872c-1.334 0-2.367-1.103-2.367-2.436S76.064 5 77.398 5s2.366 1.103 2.366 2.436-1.032 2.436-2.366 2.436zm-2.392 15.256v-13.59h4.784v13.59h-4.784zM72.11 15.36c-.755 0-1.334.308-1.586.462v9.307H65.74v-13.59h3.802l.705 1.308c.277-.846 1.032-1.564 2.14-1.564.755 0 1.259.154 1.485.282v4.051c-.478-.128-1.108-.256-1.762-.256zm-9.09 6.333c.302 0 1.36-.153 1.712-.205v3.462c-.73.179-2.341.436-3.398.436-1.36 0-3.903-.154-3.903-3.923v-6.82H55.67V11.54h1.763l.604-3.077 4.179-1.026v4.103h2.518l-.63 3.102h-1.888v5.95c0 .922.277 1.101.805 1.101zm-12.362-6.23c0 .538.352.718 1.183 1.102l.504.231c1.183.539 2.819 1.41 2.819 3.975 0 4.102-2.996 4.615-5.136 4.615-1.384 0-2.845-.334-3.826-.641v-3.513c.855.231 2.341.59 2.995.59.73 0 1.284-.103 1.284-.77 0-.512-.352-.743-1.133-1.102l-.604-.282c-1.133-.54-2.744-1.462-2.744-3.95 0-3.64 2.794-4.435 5.136-4.435 1.762 0 2.92.41 3.524.64v3.41c-.705-.23-2.14-.538-2.995-.538-.58 0-1.007.154-1.007.667z" fill="#4172C5" fill-rule="nonzero"/><circle fill="#4172C5" cx="17" cy="17" r="17"/><g fill="#FFF" fill-rule="nonzero"><path d="M13.179 11.478l6.773-1.764-.359-.692c-.234-.45-.807-.636-1.278-.412l-6.063 2.868h.927zm8.876-1.713a.997.997 0 0 0-.252.032l-1.591.415-4.86 1.266h7.92l-.298-1.042c-.114-.406-.5-.671-.92-.671zm2.211 2.35H10.164a.97.97 0 0 0-.746.342.897.897 0 0 0-.21.568v10.142c0 .502.428.91.954.91h14.102c.527 0 .954-.408.954-.91v-2.54h-5.66c-.896 0-1.623-.693-1.623-1.547v-2.024c0-.42.176-.8.46-1.078a1.635 1.635 0 0 1 1.16-.468h5.663v-2.485c.002-.502-.425-.91-.952-.91z"/><path d="M25.888 16.38a.963.963 0 0 0-.643-.238h-5.688c-.526 0-.954.407-.954.91v2.026c0 .503.428.91.954.91h5.688c.109 0 .212-.018.309-.049a.935.935 0 0 0 .334-.19.889.889 0 0 0 .31-.67v-2.027a.889.889 0 0 0-.31-.672zm-4.339 1.866a.467.467 0 0 1-.477.455h-.317a.467.467 0 0 1-.477-.455v-.302a.44.44 0 0 1 .184-.357.497.497 0 0 1 .293-.098h.317c.263 0 .477.204.477.455v.302z"/></g></g></svg>