<svg width="57" height="18" viewBox="0 0 57 18" xmlns="http://www.w3.org/2000/svg"><title>Shape</title><path d="M53.251.318h-3.58c-1.111 0-1.938.31-2.427 1.447l-6.879 15.982h4.865s.794-2.149.974-2.62l5.933.008c.138.608.565 2.612.565 2.612H57L53.251.317zm-5.714 11.241a3285.5 3285.5 0 0 0 1.846-4.874c-.025.048.378-1.008.617-1.665l.313 1.504 1.073 5.035h-3.849zm-6.848.482C40.656 15.663 37.491 18 32.621 18c-2.077-.022-4.078-.441-5.162-.929l.651-3.903.597.279c1.522.65 2.508.913 4.363.913 1.33 0 2.756-.536 2.77-1.703.009-.764-.597-1.308-2.402-2.164-1.759-.835-4.087-2.233-4.057-4.738C29.406 2.365 32.633 0 37.21 0c1.794 0 3.233.379 4.15.732l-.627 3.78-.418-.202a8.367 8.367 0 0 0-3.468-.667c-1.813 0-2.654.775-2.654 1.5-.01.816.981 1.354 2.602 2.163 2.678 1.241 3.913 2.753 3.893 4.735zM0 .499l.06-.35h7.183C8.21.187 8.992.504 9.26 1.566l1.562 7.706C9.29 5.242 5.59 1.889 0 .499zM20.95.315l-7.296 17.406-4.903.009L4.602 3.187c2.983 1.958 5.523 5.065 6.418 7.23l.484 1.795L16.042.319 20.95.315zm1.873-.014h4.636l-2.9 17.439h-4.633L22.823.3z" fill="#4172C5"/></svg>